<?xml version="1.0" standalone="no"?>
<!DOCTYPE svg PUBLIC "-//W3C//DTD SVG 20010904//EN"
 "http://www.w3.org/TR/2001/REC-SVG-20010904/DTD/svg10.dtd">
<svg version="1.0" xmlns="http://www.w3.org/2000/svg"
 width="172.000000pt" height="164.000000pt" viewBox="0 0 172.000000 164.000000"
 preserveAspectRatio="xMidYMid meet">

<g transform="translate(0.000000,164.000000) scale(0.100000,-0.100000)"
fill="#000000" stroke="none">
<path d="M1400 1565 l0 -64 -67 -3 -67 -3 0 -85 0 -85 67 -3 67 -3 0 -64 0
-65 90 0 90 0 0 65 0 65 65 0 65 0 0 90 0 90 -65 0 -65 0 0 65 0 65 -90 0 -90
0 0 -65z m130 -50 l0 -65 65 0 65 0 0 -40 0 -40 -65 0 -65 0 0 -70 0 -70 -46
0 -46 0 3 68 4 67 -67 3 -68 3 0 39 0 39 68 3 67 3 -4 63 -3 62 46 0 46 0 0
-65z"/>
<path d="M340 1194 c-78 -21 -131 -49 -186 -97 -114 -100 -166 -241 -146 -389
20 -138 38 -163 299 -417 249 -242 278 -262 392 -282 48 -9 76 -8 134 4 135
28 161 46 403 284 235 231 248 248 280 373 40 158 -25 348 -153 446 -77 59
-143 77 -278 78 -116 1 -123 0 -190 -32 -63 -30 -91 -54 -277 -245 -120 -123
-218 -232 -234 -261 -52 -95 -67 -203 -40 -305 l14 -53 -125 123 c-139 138
-170 187 -182 285 -27 225 112 416 331 454 102 18 252 -19 297 -74 18 -21 51
-21 51 0 0 21 -20 37 -90 73 -98 51 -198 62 -300 35z m912 -64 c159 -59 259
-249 228 -430 -20 -117 -53 -162 -279 -382 -246 -240 -278 -260 -426 -266
-132 -6 -182 15 -279 119 -96 102 -119 157 -120 285 -1 138 21 175 263 424
251 260 290 283 461 276 65 -3 113 -11 152 -26z"/>
</g>
</svg>
